[
  {
    index: 0,
    codec_name: 'aac',
    codec_long_name: 'AAC (Advanced Audio Coding)',
    profile: 'LC',
    codec_type: 'audio',
    codec_time_base: '1/48000',
    codec_tag_string: 'mp4a',
    codec_tag: '0x6134706d',
    sample_fmt: 'fltp',
    sample_rate: 48000,
    channels: 2,
    channel_layout: 'stereo',
    bits_per_sample: 0,
    id: 'N/A',
    r_frame_rate: '0/0',
    avg_frame_rate: '0/0',
    time_base: '1/48000',
    start_pts: 0,
    start_time: 0,
    duration_ts: 1683682,
    duration: 35.076708,
    bit_rate: 109611,
    max_bit_rate: 128000,
    bits_per_raw_sample: 'N/A',
    nb_frames: 1647,
    nb_read_frames: 'N/A',
    nb_read_packets: 'N/A',
    tags: {
      creation_time: '2020-02-28T14:47:47.000000Z',
      language: 'eng',
      handler_name: 'Core Media Audio'
    },
    disposition: {
      default: 1,
      dub: 0,
      original: 0,
      comment: 0,
      lyrics: 0,
      karaoke: 0,
      forced: 0,
      hearing_impaired: 0,
      visual_impaired: 0,
      clean_effects: 0,
      attached_pic: 0,
      timed_thumbnails: 0
    }
  },
  {
    index: 1,
    codec_name: 'h264',
    codec_long_name: 'H.264 / AVC / MPEG-4 AVC / MPEG-4 part 10',
    profile: 'High',
    codec_type: 'video',
    codec_time_base: '1001/48000',
    codec_tag_string: 'avc1',
    codec_tag: '0x31637661',
    width: 1920,
    height: 1012,
    coded_width: 1920,
    coded_height: 1024,
    has_b_frames: 1,
    sample_aspect_ratio: '1:1',
    display_aspect_ratio: '480:253',
    pix_fmt: 'yuv420p',
    level: 40,
    color_range: 'tv',
    color_space: 'bt709',
    color_transfer: 'bt709',
    color_primaries: 'bt709',
    chroma_location: 'left',
    field_order: 'progressive',
    timecode: 'N/A',
    refs: 1,
    is_avc: 'true',
    nal_length_size: 4,
    id: 'N/A',
    r_frame_rate: '24000/1001',
    avg_frame_rate: '24000/1001',
    time_base: '1/24000',
    start_pts: 0,
    start_time: 0,
    duration_ts: 841841,
    duration: 35.076708,
    bit_rate: 2584671,
    max_bit_rate: 'N/A',
    bits_per_raw_sample: 8,
    nb_frames: 841,
    nb_read_frames: 'N/A',
    nb_read_packets: 'N/A',
    tags: {
      creation_time: '2020-02-28T14:47:47.000000Z',
      language: 'und',
      handler_name: 'Core Media Video',
      encoder: 'H.264',
      timecode: '12:06:34:09'
    },
    disposition: {
      default: 1,
      dub: 0,
      original: 0,
      comment: 0,
      lyrics: 0,
      karaoke: 0,
      forced: 0,
      hearing_impaired: 0,
      visual_impaired: 0,
      clean_effects: 0,
      attached_pic: 0,
      timed_thumbnails: 0
    }
  },
  {
    index: 2,
    codec_name: 'unknown',
    codec_long_name: 'unknown',
    profile: 'unknown',
    codec_type: 'data',
    codec_tag_string: 'tmcd',
    codec_tag: '0x64636d74',
    id: 'N/A',
    r_frame_rate: '0/0',
    avg_frame_rate: '24/1',
    time_base: '1/24000',
    start_pts: 0,
    start_time: 0,
    duration_ts: 841841,
    duration: 35.076708,
    bit_rate: 'N/A',
    max_bit_rate: 'N/A',
    bits_per_raw_sample: 'N/A',
    nb_frames: 1,
    nb_read_frames: 'N/A',
    nb_read_packets: 'N/A',
    tags: {
      creation_time: '2020-02-28T14:47:47.000000Z',
      language: 'und',
      handler_name: 'Core Media Time Code',
      timecode: '12:06:34:09'
    },
    disposition: {
      default: 1,
      dub: 0,
      original: 0,
      comment: 0,
      lyrics: 0,
      karaoke: 0,
      forced: 0,
      hearing_impaired: 0,
      visual_impaired: 0,
      clean_effects: 0,
      attached_pic: 0,
      timed_thumbnails: 0
    }
  }
]
